<?xml version="1.0" encoding="UTF-8"?>
<svg id="Layer_2" data-name="Layer 2" xmlns="http://www.w3.org/2000/svg" viewBox="0 0 837.99 176.56">
  <defs>
    <style>
      .cls-1 {
        fill: #fff;
      }
    </style>
  </defs>
  <g id="Layer_1-2" data-name="Layer 1">
    <g>
      <g>
        <path class="cls-1" d="M252.65,72.05c3.11-1.8,6.62-2.7,10.54-2.7,3.49,0,6.67.6,9.56,1.8,2.89,1.2,5.31,3,7.27,5.39l14.06-14.06c-3.92-4.36-8.5-7.65-13.73-9.89-5.23-2.23-10.95-3.35-17.16-3.35-8.07,0-15.31,1.8-21.74,5.39-6.43,3.6-11.5,8.53-15.2,14.79-3.71,6.27-5.56,13.32-5.56,21.17s1.85,14.58,5.56,20.84c3.7,6.27,8.77,11.22,15.2,14.87,6.43,3.65,13.62,5.48,21.58,5.48,6.32,0,12.12-1.17,17.41-3.51,5.28-2.34,9.83-5.69,13.65-10.05l-13.73-13.89c-2.18,2.4-4.69,4.22-7.52,5.48-2.83,1.25-6.05,1.88-9.64,1.88-3.92,0-7.44-.92-10.54-2.78-3.11-1.85-5.53-4.36-7.27-7.52-1.74-3.16-2.62-6.81-2.62-10.95s.87-7.79,2.62-10.95c1.74-3.16,4.17-5.64,7.27-7.44Z"/>
        <path class="cls-1" d="M732.82,72.05c3.11-1.8,6.62-2.7,10.54-2.7,3.49,0,6.67.6,9.56,1.8,2.89,1.2,5.31,3,7.27,5.39l14.06-14.06c-3.92-4.36-8.5-7.65-13.73-9.89-5.23-2.23-10.95-3.35-17.16-3.35-8.07,0-15.31,1.8-21.74,5.39-6.43,3.6-11.5,8.53-15.2,14.79-3.71,6.27-5.56,13.32-5.56,21.17s1.85,14.58,5.56,20.84c3.7,6.27,8.77,11.22,15.2,14.87,6.43,3.65,13.62,5.48,21.58,5.48,6.32,0,12.12-1.17,17.41-3.51,5.28-2.34,9.83-5.69,13.65-10.05l-13.73-13.89c-2.18,2.4-4.69,4.22-7.52,5.48-2.83,1.25-6.05,1.88-9.64,1.88-3.92,0-7.44-.92-10.54-2.78-3.11-1.85-5.53-4.36-7.27-7.52-1.74-3.16-2.62-6.81-2.62-10.95s.87-7.79,2.62-10.95c1.74-3.16,4.17-5.64,7.27-7.44Z"/>
        <path class="cls-1" d="M358.87,54.64c-6.37-3.6-13.59-5.39-21.66-5.39s-15.12,1.83-21.49,5.48c-6.37,3.65-11.42,8.56-15.12,14.71-3.71,6.16-5.56,13.1-5.56,20.84s1.85,14.9,5.56,21.17c3.7,6.27,8.74,11.22,15.12,14.87,6.37,3.65,13.54,5.48,21.49,5.48s15.31-1.82,21.74-5.48c6.43-3.65,11.5-8.63,15.2-14.96,3.7-6.32,5.56-13.35,5.56-21.09s-1.88-14.71-5.64-20.92c-3.76-6.21-8.83-11.11-15.2-14.71ZM355.11,101.39c-1.69,3.16-4.09,5.67-7.19,7.52-3.11,1.85-6.68,2.78-10.71,2.78s-7.41-.92-10.46-2.78c-3.05-1.85-5.42-4.36-7.11-7.52-1.69-3.16-2.53-6.81-2.53-10.95s.84-7.79,2.53-10.95c1.69-3.16,4.06-5.64,7.11-7.44,3.05-1.8,6.54-2.7,10.46-2.7s7.54.9,10.54,2.7c3,1.8,5.39,4.28,7.19,7.44,1.8,3.16,2.7,6.81,2.7,10.95s-.85,7.79-2.53,10.95Z"/>
        <path class="cls-1" d="M496.92,53.09c-4.69-2.45-9.97-3.68-15.85-3.68s-11.22,1.28-16.02,3.84c-3.81,2.04-7.05,4.72-9.72,8.03-2.44-3.41-5.51-6.15-9.24-8.19-4.47-2.45-9.43-3.68-14.87-3.68-5.78,0-10.95,1.23-15.53,3.68-2.46,1.32-4.63,2.93-6.54,4.83v-6.87h-21.41v78.95h21.41v-46.42c0-3.16.68-5.83,2.04-8.01,1.36-2.18,3.16-3.84,5.39-4.99,2.23-1.14,4.77-1.72,7.6-1.72,4.25,0,7.79,1.28,10.62,3.84,2.83,2.56,4.25,6.13,4.25,10.71v46.58h21.58v-46.42c0-3.16.68-5.83,2.04-8.01,1.36-2.18,3.16-3.84,5.39-4.99,2.23-1.14,4.82-1.72,7.76-1.72,4.14,0,7.63,1.28,10.46,3.84,2.83,2.56,4.25,6.13,4.25,10.71v46.58h21.74v-49.85c0-6.43-1.39-11.93-4.17-16.51-2.78-4.58-6.51-8.09-11.2-10.54Z"/>
        <path class="cls-1" d="M584.97,54.8c-5.83-3.6-12.4-5.39-19.7-5.39-5.67,0-10.79,1.2-15.36,3.6-2.65,1.39-4.98,3.07-7.03,5.02v-6.98h-21.41v112.13h21.25v-40.01c2.08,1.99,4.48,3.68,7.19,5.03,4.58,2.29,9.7,3.43,15.36,3.43,7.3,0,13.84-1.8,19.61-5.39,5.77-3.6,10.32-8.5,13.65-14.71,3.32-6.21,4.99-13.18,4.99-20.92s-1.63-14.87-4.9-21.08c-3.27-6.21-7.82-11.11-13.65-14.71ZM578.92,101.47c-1.69,3.22-4,5.75-6.95,7.6-2.94,1.85-6.37,2.78-10.3,2.78s-7.44-.92-10.54-2.78c-3.11-1.85-5.45-4.39-7.03-7.6-1.58-3.21-2.37-6.89-2.37-11.03s.84-7.79,2.53-10.95c1.69-3.16,4.03-5.66,7.03-7.52,3-1.85,6.4-2.78,10.22-2.78,4.03,0,7.52.93,10.46,2.78,2.94,1.85,5.26,4.36,6.95,7.52,1.69,3.16,2.53,6.81,2.53,10.95s-.85,7.82-2.53,11.03Z"/>
        <path class="cls-1" d="M671.72,58.5c-2.19-2.26-4.74-4.16-7.68-5.66-4.47-2.29-9.48-3.43-15.04-3.43-7.3,0-13.81,1.8-19.53,5.39-5.72,3.6-10.22,8.5-13.48,14.71-3.27,6.21-4.9,13.24-4.9,21.08s1.63,14.71,4.9,20.92c3.27,6.21,7.76,11.11,13.48,14.71,5.72,3.6,12.18,5.39,19.37,5.39,5.66,0,10.76-1.14,15.28-3.43,2.92-1.48,5.45-3.34,7.6-5.57v7.37h21.58V51.04h-21.58v7.46ZM667.47,105.8c-3.71,4.03-8.56,6.05-14.55,6.05-3.82,0-7.25-.92-10.3-2.78-3.05-1.85-5.42-4.36-7.11-7.52-1.69-3.16-2.53-6.87-2.53-11.12s.84-7.79,2.53-10.95c1.69-3.16,4.03-5.66,7.03-7.52,3-1.85,6.46-2.78,10.38-2.78s7.52.9,10.46,2.7c2.94,1.8,5.28,4.33,7.03,7.6,1.74,3.27,2.62,6.97,2.62,11.11,0,6.1-1.85,11.17-5.56,15.2Z"/>
        <polygon class="cls-1" points="837.99 51.04 819.52 51.04 819.52 18.19 798.11 18.19 798.11 51.04 779.64 51.04 779.64 69.84 798.11 69.84 798.11 129.99 819.52 129.99 819.52 69.84 837.99 69.84 837.99 51.04"/>
      </g>
      <g>
        <path class="cls-1" d="M88.28,0C39.53,0,0,39.53,0,88.28s39.53,88.28,88.28,88.28,88.28-39.53,88.28-88.28S137.04,0,88.28,0ZM88.28,160.28c-39.7,0-72-32.3-72-72S48.58,16.28,88.28,16.28s72,32.3,72,72-32.3,72-72,72h0Z"/>
        <rect class="cls-1" x="79.99" y="79.99" width="16.57" height="16.57"/>
        <rect class="cls-1" x="79.99" y="53.83" width="16.57" height="16.57"/>
        <rect class="cls-1" x="79.99" y="27.67" width="16.57" height="16.57"/>
      </g>
    </g>
  </g>
</svg>